Coordinates
version=1
nRows=8
nColumns=42
inDegrees=yes

Units are S.I. units (second, meters, Newtons, ...)
If the header above contains a line with 'inDegrees', this indicates whether rotational values are in degrees (yes) or radians (no).

endheader
time	pelvis_tilt	pelvis_list	pelvis_rotation	pelvis_tx	pelvis_ty	pelvis_tz	hip_flexion_r	hip_adduction_r	hip_rotation_r	knee_angle_r	knee_adduction_r	knee_angle_r_beta	ankle_angle_r	subtalar_angle_r	mtp_angle_r	hip_flexion_l	hip_adduction_l	hip_rotation_l	knee_angle_l	knee_adduction_l	knee_angle_l_beta	ankle_angle_l	subtalar_angle_l	mtp_angle_l	lumbar_extension	lumbar_bending	lumbar_rotation	arm_flex_r	arm_add_r	arm_rot_r	elbow_flex_r	pro_sup_r	wrist_flex_r	wrist_dev_r	arm_flex_l	arm_add_l	arm_rot_l	elbow_flex_l	pro_sup_l	wrist_flex_l	wrist_dev_l
      1.32000000	     21.10474256	      3.24235100	      2.78420117	      0.02656499	      0.93732869	     -0.26141473	    -23.26649263	     -9.71324002	    -16.73016605	     54.59238712	     -1.71692419	      0.95281690	     -3.18647764	     13.11778767	     -7.64888829	     -7.22627830	      7.94992767	     -6.03052249	     24.70558925	     -5.22295730	      0.43119388	     17.86611981	      3.52984829	     -7.64888829	    -33.48798998	     -3.89747003	      4.78654667	      9.70018658	    -11.39456807	    -23.07758038	     28.92410744	     90.00000001	      0.00000000	      0.00000000	     -1.89169238	    -16.72062251	      3.60910834	     68.28022315	     90.00000001	      0.00000000	      0.00000000
      1.33000000	     21.09681778	      3.16992773	      2.77193760	      0.03150064	      0.93756066	     -0.26336535	    -22.03190422	     -9.86869992	    -16.55960105	     56.63301448	     -2.03121655	      0.98843257	     -2.28954638	     11.56601736	     -7.64492143	     -7.50489667	      7.95662037	     -5.83033729	     24.86183757	     -5.05353366	      0.43392092	     18.24706785	      3.36861723	     -7.64492143	    -33.61017908	     -3.84602906	      4.77101402	      9.26894970	    -11.53817536	    -23.42944442	     28.72701260	     90.00000001	      0.00000000	      0.00000000	     -1.68010894	    -16.77612431	      3.68712489	     68.54481601	     90.00000001	      0.00000000	      0.00000000
      1.34000000	     21.11605766	      3.10393450	      2.74353469	      0.03643341	      0.93797694	     -0.26510645	    -20.88252596	    -10.06342810	    -15.68547509	     58.48200801	     -1.47691775	      1.02070359	     -1.54255885	      9.04899465	     -7.63460612	     -7.88584087	      7.99832387	     -5.08160349	     24.95704147	     -4.74238020	      0.43558255	     18.12953916	      2.09488239	     -7.63460612	    -33.71744238	     -3.83554647	      4.77716647	      9.03310815	    -11.52071486	    -24.81636627	     28.25044186	     90.00000001	      0.00000000	      0.00000000	     -1.48132241	    -16.91479677	      3.75411258	     68.67014320	     90.00000001	      0.00000000	      0.00000000
      1.35000000	     21.32041534	      2.89940019	      2.67484744	      0.04141452	      0.93866891	     -0.26656198	    -19.91971406	     -9.93444897	    -15.85997109	     59.90053337	     -2.13806734	      1.04546153	     -0.13316440	      8.15528122	     -7.63206065	     -8.50571056	      7.80432447	     -4.67611620	     24.91880929	     -4.41437630	      0.43491527	     18.45513450	      1.89920842	     -7.63206065	    -34.02402950	     -3.70217834	      4.85085860	      8.60417898	    -11.65176866	    -25.01535288	     28.11489205	     90.00000001	      0.00000000	      0.00000000	     -1.30697313	    -17.00213187	      3.70547567	     68.90969094	     90.00000001	      0.00000000	      0.00000000
      1.36000000	     21.45130786	      2.74665688	      2.60808682	      0.04611676	      0.93925263	     -0.26805933	    -18.82626773	     -9.86041858	    -16.09847440	     61.23441966	     -2.79884806	      1.06874224	      1.47220656	      7.20561617	     -7.62948843	     -9.03204621	      7.69336811	     -4.15859589	     24.88148019	     -4.07634569	      0.43426375	     18.66260009	      1.38831990	     -7.62948843	    -34.27604584	     -3.61423975	      4.87239372	      8.26368599	    -11.76095069	    -25.28665891	     27.93209749	     90.00000001	      0.00000000	      0.00000000	     -1.10221862	    -17.07416786	      3.70250134	     69.12862871	     90.00000001	      0.00000000	      0.00000000
      1.37000000	     21.72474148	      2.50759381	      2.59849666	      0.05067527	      0.94010021	     -0.26968669	    -17.94167366	     -9.70551757	    -16.21788376	     62.20294177	     -3.17515403	      1.08564614	      2.48787310	      6.76074754	     -7.62798910	     -9.67025356	      7.51085625	     -3.87425456	     24.90181078	     -3.96864072	      0.43461859	     18.75260162	      1.15075865	     -7.62798910	    -34.70332095	     -3.37985884	      4.85653292	      7.93490953	    -11.95440684	    -25.43005528	     27.82583692	     90.00000001	      0.00000000	      0.00000000	     -0.86397753	    -17.14972574	      3.64882650	     69.27774837	     90.00000001	      0.00000000	      0.00000000
      1.38000000	     21.78679490	      2.37920624	      2.42687305	      0.05535059	      0.94061271	     -0.27072748	    -16.75252901	     -9.52464926	    -16.50951658	     63.09406219	     -4.04966877	      1.10119912	      4.69729678	      5.81664461	     -7.62610517	    -10.23620201	      7.42004352	     -3.32475069	     24.60386830	     -3.54310297	      0.42941851	     18.96610133	      0.52223449	     -7.62610517	    -34.85286028	     -3.41529360	      4.95696199	      7.58788577	    -11.98974613	    -25.72452046	     27.55210235	     90.00000001	      0.00000000	      0.00000000	     -0.73527138	    -17.29496724	      3.60317610	     69.47081709	     90.00000001	      0.00000000	      0.00000000
      1.39000000	     21.75838846	      2.65872283	      2.40227722	      0.05953097	      0.94110343	     -0.27258486	    -15.49062633	     -9.95360445	    -17.23276308	     63.87426382	     -4.88915392	      1.11481621	      6.60498081	      6.30407420	     -7.61801649	    -10.92276817	      7.91660273	     -1.29120588	     23.89846229	     -2.83152137	      0.41710685	     17.80638153	     -2.84035945	     -7.61801649	    -35.01617503	     -3.71233487	      4.65582442	      7.64186125	    -11.82104894	    -27.81300156	     26.98929123	     90.00000001	      0.00000000	      0.00000000	     -0.52146926	    -17.46616371	      3.64962338	     69.58494128	     90.00000001	      0.00000000	      0.00000000
